# xmcd CD database file
#
# Track frame offsets:
#	150
#	26116
#	63029
#	83743
#	107084
#	134604
#	170683
#	205850
#	236172
#	265112
#	299624
#
# Disc length: 4393 seconds
#
# Revision: 0
# Processed by: cddbd v1.5.2PL0 Copyright (c) Steve Scherf et al.
# Submitted via: CDex 1.51
#
DISCID=a211270b
DTITLE=Mr. G and The Mystery Band - It's a Mystery
DYEAR=2009
DGENRE=Blues
TTITLE0=It's a Mystery
TTITLE1=My Dog and Me
TTITLE2=Hey José
TTITLE3=After Party
TTITLE4=I'm Trying to Quit
TTITLE5=Cheat Me Fair
TTITLE6=How Much Longer
TTITLE7=Get Out and Walk
TTITLE8=All I Need Is Your Love
TTITLE9=Paying Taxes
TTITLE10=Work, Work, Work
EXTD=YEAR: 2009
EXTT0=
EXTT1=
EXTT2=
EXTT3=
EXTT4=
EXTT5=
EXTT6=
EXTT7=
EXTT8=
EXTT9=
EXTT10=
PLAYORDER=
